# xmcd
#
# Track frame offsets:
#	150
#	18529
#	33670
#	45163
#	64978
#	83071
#	105334
#	130499
#	149352
#	167883
#	186432
#	209194
#
# Disc length: 3369 seconds
#
# Revision: 1
# Processed by: cddbd v1.5.2PL0 Copyright (c) Steve Scherf et al.
# Submitted via: audiograbber 1.81.03
#
DISCID=b10d270c
DTITLE=Jack`D - Ontario Motel
DYEAR=2007
DGENRE=Blues
TTITLE0=Mr`Ryder
TTITLE1=Hey Jack
TTITLE2=The`Man From Mephis Who Went To Texas To Be On Broadway
TTITLE3=Gin And Milk
TTITLE4=Horizon Man
TTITLE5=New Song
TTITLE6=Handicap Soundtrack
TTITLE7=Little Bit More
TTITLE8=Blues Song
TTITLE9=Sing What You Feel
TTITLE10=Sinners And Stealers
TTITLE11=Change The Name
EXTD=
EXTT0=
EXTT1=
EXTT2=
EXTT3=
EXTT4=
EXTT5=
EXTT6=
EXTT7=
EXTT8=
EXTT9=
EXTT10=
EXTT11=
PLAYORDER=
